<?xml version="1.0" standalone="no"?><!DOCTYPE svg PUBLIC "-//W3C//DTD SVG 1.1//EN" "http://www.w3.org/Graphics/SVG/1.1/DTD/svg11.dtd"><svg t="1761723076973" class="icon" viewBox="0 0 1024 1024" version="1.1" xmlns="http://www.w3.org/2000/svg" p-id="4741" width="500" height="500" xmlns:xlink="http://www.w3.org/1999/xlink"><path d="M512 512m-512 0a512 512 0 1 0 1024 0 512 512 0 1 0-1024 0Z" fill="#FE812A" p-id="4742"></path><path d="M430.665842 6.509623C224.649412 39.373222 59.62217 195.122506 13.107148 396.253708c52.227499 73.383171 137.980879 121.246839 234.912363 121.246839 159.135347 0 288.139305-129.002754 288.139305-288.135693 0-89.807746-41.091541-170.012413-105.492974-222.855231z" fill="#FFFFFF" opacity=".5" p-id="4743"></path><path d="M367.358979 529.60464c56.047056-12.352147 73.946712-62.5338 49.372465-119.209421-9.712656-22.452538-48.918501-99.362658-64.99869-130.821017-8.699967 7.306768-15.891138 15.698474-20.941333 25.031823-19.15799 35.299591-20.480144 113.666729-30.136205 211.515773 17.46255 11.589922 39.911476 19.351858 66.703763 13.4997v-0.016858zM767.824797 397.217026a22.550074 22.550074 0 0 0-24.840364-21.625289c-21.745704 2.199978-55.225827 2.199978-83.777374-12.236549-46.658316-23.636216-26.557478-57.750925-65.073347-93.75735-39.028836-36.489288-139.138065-40.465384-206.336733-11.648925C414.147343 311.474484 452.795669 391.34801 462.054361 417.20347c26.614073 74.635484-14.555738 135.277568-78.175679 154.512624-37.267168 11.299722-66.639943 5.181448-88.633701-6.599934a1517.280319 1517.280319 0 0 1-6.497582 45.819025c-6.867254 43.138592-16.068147 78.865655-25.148625 107.049937a42.66175 42.66175 0 0 0-1.221006 46.973803 42.666566 42.666566 0 0 0 42.697875 19.61075l0.38051 0.367265h298.201163a20.904004 20.904004 0 0 0 2.139771 0.128844 25.617039 25.617039 0 0 0 21.810728-12.216079 25.615835 25.615835 0 0 0 1.023525-24.976432 170.425436 170.425436 0 0 0-69.855017-99.862379c1.317338-27.992822 7.87633-53.713418 23.824062-70.618448 33.220027-35.240587 116.762592-9.080478 162.086713-68.839921 22.315266-29.565439 24.281639-80.698368 23.137699-111.335499z m-209.376003 10.961357c-17.805732-0.025287-32.220585-14.472652-32.203726-32.278384 0-17.840653 14.437731-32.281996 32.203726-32.281996 17.785262 0 32.222993 14.44014 32.222993 32.281996s-14.437731 32.278384-32.222993 32.278384z m0 0" fill="#FFFFFF" p-id="4744"></path></svg>