<?xml version="1.0" standalone="no"?><!DOCTYPE svg PUBLIC "-//W3C//DTD SVG 1.1//EN" "http://www.w3.org/Graphics/SVG/1.1/DTD/svg11.dtd"><svg t="1777378882350" class="icon" viewBox="0 0 1024 1024" version="1.1" xmlns="http://www.w3.org/2000/svg" p-id="6899" xmlns:xlink="http://www.w3.org/1999/xlink" width="200" height="200"><path d="M355.79392 166.81984h29.1072v16.13312c0 3.19488 0.96256 6.0672 2.3296 8.73472 1.38752 7.59296 7.68 13.35808 15.5904 13.35808 5.4016 0 9.94304-2.76992 12.87168-6.82496 4.74624-3.5584 8.02816-8.92416 8.02816-15.27296v-16.128h22.58432a19.45088 19.45088 0 0 0 19.4304-19.4304 19.456 19.456 0 0 0-19.4304-19.42528h-22.58432V103.7312a19.42528 19.42528 0 0 0-19.4304-19.42528 19.39968 19.39968 0 0 0-19.39968 19.42528v24.23296H355.7888a19.44064 19.44064 0 0 0-19.38944 19.42528 19.44576 19.44576 0 0 0 19.39456 19.4304z" p-id="6900"></path><path d="M798.1312 862.80192c-54.4256-132.20864-165.79584-226.08896-297.60512-255.6928 79.61088-56.73984 133.61664-178.43712 133.61664-323.11296 0-92.02176-22.68672-179.3536-63.89248-245.89824l-4.8896-7.88992-8.70912-3.20512c-100.44416-36.89472-215.58272-36.89472-315.95008 0l-8.71936 3.21024-4.89472 7.87968c-41.22624 66.5088-63.93344 153.85088-63.93344 245.89824 0 148.52096 56.832 273.024 139.94496 327.68-122.73152 33.80224-226.62656 124.928-278.61504 251.13088l-1.28 3.90144c-5.01248 20.67456-13.67552 72.9088 14.33088 111.20128 11.04384 15.1296 32.41984 33.71008 71.45472 36.4288 35.96288 2.46784 137.19552 4.97152 302.3616 7.3984H412.76928c163.67616-2.432 264.89856-4.93056 300.94848-7.3984 38.96832-2.71872 60.32896-21.2992 71.3728-36.4288 28.02176-38.28736 19.32288-90.51136 14.34624-111.20128l-1.3056-3.90144zM268.11392 74.4192c83.20512-28.36992 177.78688-28.36992 261.09952 0 29.80864 51.62496 46.65856 117.29408 49.78688 187.29472-160.71168-31.6672-300.1344-11.91936-360.69888 0.27136 3.08224-70.12352 19.95264-135.88992 49.81248-187.56608zM218.2144 317.07648c49.18272-10.55744 195.60448-35.1232 360.89344-0.31744-10.1376 149.8624-88.61184 270.90432-180.4544 270.90432-91.78112 0.00512-170.20416-120.86784-180.43904-270.58688z m523.42272 629.03296c-6.37952 8.69888-16.76288 13.42976-31.63136 14.4896-35.072 2.41152-135.3216 4.83328-298.05056 7.26528l0.40448 26.9312-1.69984-26.9312c-162.73408-2.432-262.97856-4.85376-297.9584-7.26528-14.95552-1.04448-25.33888-5.79072-31.70304-14.4896-11.62752-15.8976-10.73664-43.47904-5.89312-64.73216 58.33728-139.51488 188.68224-229.88288 332.34432-230.58944l3.89632 0.24064c1.17248 0 2.46784-0.08192 3.57376-0.09728 143.99488 0.55808 274.31936 90.9312 332.61056 230.4256 4.83328 21.2736 5.71392 48.85504-5.89312 64.75264z" p-id="6901"></path><path d="M1003.40224 857.28256c-42.89536-134.36928-137.25696-185.1136-199.71584-218.69568-9.96864-5.36576-19.2-10.31168-27.40224-15.21664-11.2896-6.62016-22.87104-12.09344-33.11104-16.91136-5.74976-2.71872-12.9024-6.08256-17.96096-8.88832 141.69088-210.49344 123.53024-397.73696 122.75712-404.74624-5.54496-107.68384-109.55776-146.29888-163.77344-151.68l-17.85856-1.77152-3.5328 35.7376 17.88416 1.77152c5.12 0.512 126.04416 13.696 131.51232 118.76864 0.07168 0.8448 3.57888 39.82336-5.53984 100.82816-41.10336-16.39424-102.86592-20.29056-111.26784-20.7104l-1.82784 35.87584c30.58688 1.5616 82.23232 8.46848 106.57792 20.68992-14.73024 70.1952-45.73184 160.37888-110.96576 254.35136l-1.96096 3.6608c-9.7536 24.85248 17.04448 37.45792 40.68352 48.59904 9.32352 4.41344 19.91168 9.37472 30.12096 15.35488 8.5248 5.06368 18.2016 10.29632 28.65664 15.8976 60.81536 32.6912 144.06144 77.46048 181.94432 195.36384 7.12192 45.27616 0.2816 59.68384-2.98496 63.78496-1.54624 1.95584-4.02944 3.98336-10.45504 4.42368-23.87968 1.59744-55.72096 2.4576-55.82848 2.4576l0.98816 35.90656s32.71168-0.896 57.27232-2.5344c15.32928-1.04448 27.48928-7.04512 36.1216-17.85856 14.12096-17.72032 17.38752-46.88384 9.66656-94.45888z" p-id="6902"></path></svg>