<?xml version="1.0" standalone="no"?><!DOCTYPE svg PUBLIC "-//W3C//DTD SVG 1.1//EN" "http://www.w3.org/Graphics/SVG/1.1/DTD/svg11.dtd"><svg t="1777379349750" class="icon" viewBox="0 0 1024 1024" version="1.1" xmlns="http://www.w3.org/2000/svg" p-id="12697" xmlns:xlink="http://www.w3.org/1999/xlink" width="200" height="200"><path d="M515.389702 54.571896c-252.633834 0-457.432197 204.798363-457.432197 457.43322s204.798363 457.43322 457.432197 457.43322S972.822922 764.638951 972.822922 512.004093 768.023536 54.571896 515.389702 54.571896M515.389702 912.259056c-221.047442 0-400.252917-179.205475-400.252917-400.25394 0-221.065861 179.205475-400.25394 400.252917-400.25394 221.048465 0 400.25394 179.187055 400.25394 400.25394C915.643642 733.053582 736.438167 912.259056 515.389702 912.259056M759.619122 735.87586c-27.082822-12.209066-44.001143 3.38919-47.38931 7.42818-3.368724 4.074805-4.096295 10.143011-4.096295 10.143011s11.894911-12.023848 25.761734-7.407714c18.296715 6.068206 26.393113 38.585807 4.03899 52.116985-27.00812 16.380062-81.916684-2.047636-111.695918-48.728818-29.763884-46.736441-52.154847-165.897378-52.154847-165.897378s-31.120788 12.880355-52.116985-0.688685c-21.012569-13.531178-17.607006-46.718021-1.357927-71.753207 16.211217-25.052582 40.632419-31.828916 40.632419-31.828916s-39.274492 22.317285-45.396933 57.551764c-6.068206 35.21606 18.092054 57.105602 58.46353 36.33351 0 0 0.911766-21.648043 5.900384-47.835472 4.91494-26.207895 7.204076-36.556591 6.329149-38.826284-0.930185-2.270716-12.675694-17.58961-37.059034-24.829502-24.364921-7.222495-35.19764-2.233877-37.877679 0.893346-2.716878 3.164063-9.976212 17.159822-26.188452 16.71366-16.249079-0.447185-30.692023-12.619412-30.692023-12.619412s-10.852162 23.452131-10.386558 45.583175c0.447185 22.093181 31.17707 29.315676 39.71963 37.915541 8.543583 8.56098 7.668657 26.187429 7.668657 26.187429s-36.295648 18.707061-33.410947 64.065108c4.057409 63.656809 27.770484 90.720188 36.576033 148.960637 1.023306 6.718005-8.691963 2.828418-16.920368 12.189623-10.143011 11.502985 0.652869 22.355147 0.652869 22.355147l18.965957 0c0 0-8.096399-12.209066 2.029216-21.683858 7.352455-6.867408 14.257725-6.105045 14.257725-6.105045s-16.975627-27.733645-13.570063-58.20361c3.368724-30.506804 32.517601-35.902698 50.106188-32.515554 17.60803 3.388167 37.263695 18.278295 37.263695 18.278295s-25.759687-15.561417-48.784076-11.502985c-23.043832 4.074805-34.527374 20.288069-28.40391 50.106188 6.086625 29.78128 13.494339 38.566364 13.494339 38.566364s-14.797008 1.453095-18.96698 6.794753c-6.719028 8.803503-0.650823 16.956184-0.650823 16.956184l202.452945 0.669242c0 0 37.207413-0.669242 52.118008-9.492188C797.830399 792.795221 789.194718 749.166561 759.619122 735.87586zM801.537837 398.47441 628.901988 398.47441 628.901988 225.839585c0-14.94641-12.58155-27.081799-28.069289-27.081799L429.946704 198.757786c-15.540951 0-28.085662 12.135388-28.085662 27.081799l0 172.634826L229.206774 398.47441c-14.927991 0-27.063379 12.582573-27.063379 28.069289l0 170.904415c0 15.522532 12.135388 28.068266 27.063379 28.068266l172.654268 0 0 172.654268c0 14.945387 12.545734 27.081799 28.085662 27.081799l170.885995 0c15.487739 0 28.069289-12.135388 28.069289-27.081799L628.901988 625.51638l172.635849 0c14.945387 0 27.099195-12.545734 27.099195-28.068266L828.637032 426.543699C828.638055 411.058007 816.484248 398.47441 801.537837 398.47441zM797.182646 596.628446 600.016101 596.628446l0 197.167568L430.747953 793.796014 430.747953 596.628446 233.581408 596.628446 233.581408 427.362344l197.167568 0L430.748976 230.213195l169.267125 0 0 197.149149 197.167568 0L797.183669 596.628446z" fill="#272636" p-id="12698"></path></svg>