<?xml version="1.0" standalone="no"?><!DOCTYPE svg PUBLIC "-//W3C//DTD SVG 1.1//EN" "http://www.w3.org/Graphics/SVG/1.1/DTD/svg11.dtd"><svg t="1777378959312" class="icon" viewBox="0 0 1024 1024" version="1.1" xmlns="http://www.w3.org/2000/svg" p-id="9042" xmlns:xlink="http://www.w3.org/1999/xlink" width="200" height="200"><path d="M586.1 760.6h-69.8V251.9c0-24.9-20.2-45.1-45.1-45.1h-69.6V98.2c0-8.3-6.7-15-15-15s-15 6.7-15 15v108.7h-67c-24.9 0-45.1 20.2-45.1 45.1v508.7h-69.8c-8.3 0-15 6.7-15 15s6.7 15 15 15h127.1v94.9h-42.3c-8.3 0-15 6.7-15 15s6.7 15 15 15h216.8c8.3 0 15-6.7 15-15s-6.7-15-15-15H463v-94.9h123.1c8.3 0 15-6.7 15-15s-6.7-15.1-15-15.1zM433 885.5h-86.2v-94.9H433v94.9zM289.5 760.6v-162h75.6c8.3 0 15-6.7 15-15s-6.7-15-15-15h-75.6v-90.7h75.6c8.3 0 15-6.7 15-15s-6.7-15-15-15h-75.6v-90.7h75.6c8.3 0 15-6.7 15-15s-6.7-15-15-15h-75.6v-75.3c0-8.3 6.8-15.1 15.1-15.1h166.6c8.3 0 15.1 6.8 15.1 15.1v508.7H289.5zM804.7 643.6H639.3c-22.7 0-41.2 18.5-41.2 41.2v28.4c0 9.9 5.7 18.5 13.9 22.7v106.6c0 40.2 32.7 72.9 72.9 72.9H759c40.2 0 72.9-32.7 72.9-72.9V736c8.3-4.2 13.9-12.8 13.9-22.7v-28.4c0.2-22.8-18.3-41.3-41.1-41.3z m-2.7 199c0 23.7-19.3 42.9-42.9 42.9H685c-23.7 0-42.9-19.3-42.9-42.9V738.8h160v103.8z m14-133.8H628.1v-23.9c0-6.2 5-11.2 11.2-11.2h165.4c6.2 0 11.2 5 11.2 11.2v23.9z" fill="#303133" p-id="9043"></path><path d="M719.5 854.4h44.1c8.3 0 15-6.7 15-15s-6.7-15-15-15h-44.1c-8.3 0-15 6.7-15 15s6.7 15 15 15z" fill="#303133" p-id="9044"></path></svg>