<?xml version="1.0" standalone="no"?><!DOCTYPE svg PUBLIC "-//W3C//DTD SVG 1.1//EN" "http://www.w3.org/Graphics/SVG/1.1/DTD/svg11.dtd"><svg t="1777378944088" class="icon" viewBox="0 0 1024 1024" version="1.1" xmlns="http://www.w3.org/2000/svg" p-id="7916" xmlns:xlink="http://www.w3.org/1999/xlink" width="200" height="200"><path d="M957.13173828 738.88349609c-2.60068359-13.7953125-11.40380859-22.71005859-22.42529297-22.71005859-0.12480469 0-0.24609375 0.00087891-0.32607422 0.00439453h-1.5618164c-22.74521484 0-41.25058594-18.51240234-41.25058594-41.26376953 0-7.19384766 3.56044922-15.5390625 3.58945313-15.60761719 5.39121094-12.13242188 1.265625-26.99208984-9.57392579-34.5524414l-0.68466796-0.49306641-46.61279297-25.89609375-1.0819336-0.50097656c-3.59296875-1.55917969-7.50410156-2.35019531-11.62705078-2.35019531-8.38125 0-16.65791016 3.39082031-22.14052734 9.07207031-5.69970703 5.91240234-21.89619141 18.87011719-32.88339844 18.87011719-11.12783203 0-27.12128906-12.95419922-33.12070312-19.2234375-5.50458984-5.79726562-13.84628906-9.25664062-22.3163086-9.25664063-4.04912109 0-7.90048828 0.76464844-11.45214844 2.27548828l-0.49570312 0.21357422-48.67734375 26.68007813-0.84375 0.59589843c-10.85800781 7.57792969-15.01347656 22.40244141-9.68027344 34.46015625 1.35087891 3.19482422 3.63955078 10.096875 3.63955078 15.71132813 0 22.753125-18.51240234 41.26289063-41.26904297 41.26289062l-1.51787109 0.00087891-0.3796875-0.00439453c-11.00390625 0-19.79648438 8.90859375-22.39980469 22.67402344-0.04042969 0.19951172-3.99287109 20.9109375-3.99287109 37.50820312 0 16.34853516 3.94716797 37.26210938 3.98671875 37.47041016 2.60771484 13.79091797 11.40292969 22.70390625 22.40683594 22.70390625 0.11601562 0 0.23466797-0.00351562 0.32519531-0.00791016h1.56445312c22.75488281 0 41.26640625 18.50537109 41.26640625 41.25146484 0 7.00751953-3.46113281 15.30263672-3.60791015 15.65332032l-0.00615235 0.0149414c-5.36044922 12.11308594-1.23662109 26.94726563 9.5897461 34.51113282l0.67763672 0.48251953 45.72246093 25.57617187 1.08808594 0.5053711c3.60087891 1.57763672 7.49882813 2.3765625 11.59101563 2.3765625 8.53154297 0 16.88466797-3.55693359 22.34355468-9.50976563 6.440625-6.99521484 22.91835937-20.06191406 33.63310547-20.06191406 11.46269531 0 27.75146484 13.79003906 33.84140625 20.46445312 5.48349609 6.04863281 13.89814453 9.66005859 22.50527344 9.6600586 4.06757812 0 7.89960937-0.77431641 11.37304688-2.29042969l0.73125-0.31025391 47.37128906-26.16503906 1.06171875-0.69960937c10.88173828-7.59023437 15.04248047-22.43144531 9.6890625-34.50322266-0.14853516-0.34980469-3.62900391-8.66162109-3.62900391-15.71396484 0-22.74521484 18.50712891-41.25058594 41.25410156-41.25058594h1.48623047c0.16787109 0.01845703 0.34101563 0.02109375 0.50800782 0.00263672 10.97402344-0.07294922 19.72089844-8.95341797 22.29697265-22.65029297 0.03955078-0.20302734 3.99990234-20.80810547 3.99990235-37.51875-0.00175781-16.13759766-3.82236328-36.59150391-3.98583985-37.4616211z m-31.36464844 37.48271485c0.01054687 8.41992188-1.42822266 19.06259766-2.42490234 25.41269531-38.35722656 4.71533203-67.10976562 37.14960937-67.10976562 75.99111328-0.00263672 9.10019531 2.21044922 17.73193359 4.26005859 23.77089844l-34.94091797 19.31572266c-2.90478516-2.87050781-7.97431641-7.59199219-14.26376953-12.26337891-14.84208984-11.02060547-29.19726563-16.60869141-42.66650391-16.60869141-13.33564453 0-27.58623047 5.47998047-42.35625 16.28964844a136.42382813 136.42382813 0 0 0-14.18115234 12.02871094l-33.44238281-18.69873047c2.05751953-6.06357422 4.28027344-14.72783203 4.28027343-23.83417969 0-38.83710938-28.74902344-71.27578125-67.09746093-75.99990234-0.99931641-6.36416016-2.44599609-17.02441406-2.4459961-25.40917969 0-8.41904297 1.44404297-19.06875 2.43984375-25.42324219 38.35195312-4.71884766 67.10361328-37.16191406 67.10361328-76.01308593 0-9.04658203-2.20869141-17.67744141-4.25214843-23.72783204l36.01230468-19.77890625c2.87490234 2.73076172 7.90048828 7.23164062 14.21191407 11.73779297 14.5828125 10.38251953 28.59433594 15.64716797 41.64785156 15.64716797 12.91464844 0 26.81015625-5.16181641 41.3015625-15.3421875a133.03564453 133.03564453 0 0 0 14.12402344-11.50751953l34.52080078 19.18125c-2.05224609 6.05214844-4.26972656 14.6953125-4.26972656 23.78759766 0 38.85908203 28.75341797 71.30214844 67.10800781 76.01220703 0.99667969 6.37822266 2.44072266 17.06044922 2.44072265 25.43203125z" fill="#707070" p-id="7917"></path><path d="M768.76894531 705.34091797c-39.01992188 0-70.76513672 31.73994141-70.76513672 70.75634766 0 39.01992188 31.74433594 70.76425781 70.76513672 70.76425781 39.01904297 0 70.7625-31.74433594 70.7625-70.76337891 0.00439453-18.87451172-7.36083984-36.63544922-20.74042969-50.01152344-13.37607422-13.37783203-31.14140625-20.74570312-50.02207031-20.74570312z m25.04267578 95.81132812c-6.70078125 6.70166016-15.59443359 10.3921875-25.04267578 10.3921875-19.53720703 0-35.43310547-15.89853516-35.43310547-35.43925781 0-19.53632813 15.89589844-35.42958984 35.43310547-35.42958984s35.43222656 15.89326172 35.43222656 35.42958984c0.00087891 9.45-3.68876953 18.34541016-10.38955078 25.04707031z" fill="#707070" p-id="7918"></path><path d="M590.09345703 911.88125H174.61601562c-33.95566406 0-61.58056641-27.62490234-61.5805664-61.57880859V174.61513672c0-33.95566406 27.62490234-61.58144531 61.58056641-61.58144531h675.68818359c33.95478516 0 61.57880859 27.62578125 61.57880859 61.58144531v406.59082031a235.87207031 235.87207031 0 0 1 45.76201172 39.94365234V174.61601562C957.64326172 115.42695312 909.490625 67.2734375 850.30419922 67.2734375H174.61601562C115.42695312 67.2734375 67.2734375 115.42695312 67.2734375 174.61513672v675.68642578c0 59.18818359 48.15351563 107.34169922 107.34257813 107.34169922h457.95146484a236.01533203 236.01533203 0 0 1-42.47402344-45.76201172z" fill="#707070" p-id="7919"></path><path d="M730.49785156 547.52890625l8.41904297-6.73417969 5.98535156 3.98847657a236.39238281 236.39238281 0 0 1 36.92285157-2.90039063 235.60839844 235.60839844 0 0 1 48.93046875 5.12402344l-80.36806641-53.57900391c-3.66503906-2.43544922-7.89433594-3.72392578-12.23261719-3.72392578-5.19521484 0-10.35 1.83867187-14.51601562 5.17851563l-4.05087891 3.24755859-0.25224609-0.30498047-132.92929688 106.34501953-201.42070312-138.49277344a5.41318359 5.41318359 0 0 1-0.59589844-0.3665039c-1.63125-1.06171875-3.64921875-1.73671875-6.09345703-2.50048828-0.77783203-0.24082031-1.41416016-0.55458984-1.87910156-0.78398438-0.10458984-0.05185547-0.20742188-0.10634766-0.31201172-0.15380859-0.54931641-0.10546875-1.17246094-0.1546875-1.94941406-0.1546875-0.84375 0-1.7578125 0.05888672-2.72460938 0.12128906-0.39111328 0.02548828-0.78310547 0.05097656-1.09423828 0.06767578-0.26542969 0.01845703-0.53261719 0.02724609-0.79980469 0.02724609-0.4640625 0-0.92988281-0.02900391-1.39394531-0.06152343-0.20039062-0.0140625-0.39902344-0.03251953-0.62753906-0.03427735-0.17753906 0.05888672-0.56689453 0.24169922-0.85605469 0.37792969-0.53349609 0.25136719-1.19707031 0.56337891-2.02236328 0.84462891l-0.95185547 0.30585937c-1.75166016 0.55810547-3.26425781 1.04150391-4.51318359 1.85800781a5.68125 5.68125 0 0 1-0.60996094 0.33398438l-168.48457031 112.32421875c-5.08974609 3.39257813-8.55263672 8.55966797-9.75058594 14.54765625-1.19794922 5.98798828 0.01142578 12.08935547 3.40664062 17.18261719 4.246875 6.37910156 11.37216797 10.18740234 19.06259766 10.18740234 4.48945313 0 8.87255859-1.33242187 12.66240234-3.84433594L371.4875 511.94726562l209.13662109 143.77500001c32.57578125-54.1265625 86.37011719-94.02363281 149.87373047-108.19335938zM582.84248047 179.88857422c-66.94980469 0-121.41650391 54.46757813-121.41650391 121.41738281 0 66.94980469 54.46669922 121.41738281 121.41650391 121.41738281 66.95068359 0 121.41826172-54.46757813 121.41826172-121.41738281 0-66.94980469-54.46845703-121.41738281-121.41826172-121.41738281z m0 197.07539062c-41.71816406 0-75.65800781-33.93984375-75.65800781-75.65888671 0-41.71728516 33.93984375-75.65800781 75.65800781-75.65800782 41.71904297 0 75.65976563 33.93984375 75.65976562 75.65800782 0 41.71904297-33.94160156 75.65888672-75.65976562 75.65888671z" fill="#707070" p-id="7920"></path></svg>