<?xml version="1.0" standalone="no"?><!DOCTYPE svg PUBLIC "-//W3C//DTD SVG 1.1//EN" "http://www.w3.org/Graphics/SVG/1.1/DTD/svg11.dtd"><svg t="1777379073181" class="icon" viewBox="0 0 1024 1024" version="1.1" xmlns="http://www.w3.org/2000/svg" p-id="10236" xmlns:xlink="http://www.w3.org/1999/xlink" width="200" height="200"><path d="M448.209138 517.415336 293.304116 517.415336l0 44.255946 154.909116 0-0.002047-44.255946L448.209138 517.415336 448.209138 517.415336zM293.303093 672.321382l154.910139 0 0-44.261063L293.303093 628.060319 293.303093 672.321382 293.303093 672.321382zM713.762213 495.28634c-97.615225 0-177.034019 79.418794-177.034019 177.035042 0 97.618295 79.418794 177.034019 177.034019 177.034019 97.618295 0 177.034019-79.422887 177.034019-177.034019C890.796232 574.704111 811.379485 495.28634 713.762213 495.28634L713.762213 495.28634 713.762213 495.28634 713.762213 495.28634 713.762213 495.28634zM713.762213 805.099455c-73.219605 0-132.779096-59.557444-132.779096-132.776026 0-73.219605 59.560514-132.779096 132.779096-132.779096s132.778072 59.561537 132.778072 132.779096C846.538239 745.535871 786.980795 805.099455 713.762213 805.099455L713.762213 805.099455 713.762213 805.099455 713.762213 805.099455 713.762213 805.099455zM249.045099 738.708372c-5.898337 0-11.452843-2.310625-15.647375-6.481621-4.172019-4.190439-6.481621-9.745968-6.481621-15.646352L226.916103 451.028347l512.013303 0c14.359033 2.054799 28.181853 5.763261 41.225937 11.063987L780.155343 296.123324c0-17.742083-6.91448-34.416857-19.448958-46.940079-12.535501-12.544711-29.217439-19.448958-46.939055-19.448958l-44.26004 0L669.50729 141.216255l-44.261063 0 0 88.518033L359.692129 229.734288 359.692129 141.216255l-44.255946 0 0 88.518033-66.389036 0c-17.71957 0-34.403554 6.90527-46.937009 19.440771-12.535501 12.535501-19.448958 29.207206-19.448958 46.953382l0 420.458097c0 17.720593 6.91448 34.404578 19.448958 46.941102 12.535501 12.531408 29.220508 19.448958 46.939055 19.448958l280.531208 0c-10.719132-13.31526-19.514449-28.204365-26.041096-44.261063l-254.490112-0.001023L249.045099 738.708372 249.045099 738.708372zM226.913033 340.380294l0-44.254923c0-5.910617 2.291183-11.464099 6.481621-15.647375 4.194532-4.181229 9.746992-6.480598 15.647375-6.480598l66.389036 0 0 66.388013 44.255946 0 0-66.388013 265.556145 0 0 66.388013 44.261063 0 0-66.388013 44.257993 0c5.898337 0 11.45489 2.299369 15.647375 6.491855 4.191462 4.173043 6.481621 9.725502 6.481621 15.636119L735.89121 406.7724 226.913033 406.7724 226.913033 340.380294 226.913033 340.380294 226.913033 340.380294zM735.892233 583.804373l-44.261063 0 0 110.646006 110.648053 0 0-44.257993-66.385966 0L735.892233 583.804373 735.892233 583.804373 735.892233 583.804373z" fill="#272536" p-id="10237"></path></svg>