<?xml version="1.0" standalone="no"?><!DOCTYPE svg PUBLIC "-//W3C//DTD SVG 1.1//EN" "http://www.w3.org/Graphics/SVG/1.1/DTD/svg11.dtd"><svg t="1761568258771" class="icon" viewBox="0 0 1024 1024" version="1.1" xmlns="http://www.w3.org/2000/svg" p-id="4676" width="500" height="500" xmlns:xlink="http://www.w3.org/1999/xlink"><path d="M781.653333 107.861333h-86.698666v68.608H781.653333c47.445333 0 85.674667 38.570667 85.674667 85.674667v530.773333c0 47.445333-38.570667 85.674667-85.674667 85.674667H250.88c-47.445333 0-85.674667-38.570667-85.674667-85.674667V262.144c0-47.445333 38.570667-85.674667 85.674667-85.674667h75.434667V107.861333H250.88c-85.333333 0-154.624 69.290667-154.624 154.624v530.773334c0 85.333333 69.290667 154.624 154.624 154.624H781.653333c85.333333 0 154.624-69.290667 154.624-154.624V262.144c0-84.992-69.290667-154.282667-154.624-154.282667z" fill="#d81e06" p-id="4677"></path><path d="M472.405333 248.490667H549.546667c58.709333 0 106.154667-47.786667 106.154666-106.154667 0-58.709333-47.786667-106.154667-106.154666-106.154667h-77.141334c-58.709333 0-106.154667 47.786667-106.154666 106.154667-0.341333 58.368 47.445333 106.154667 106.154666 106.154667z m0-143.701334H549.546667c20.821333 0 37.546667 16.725333 37.546666 37.546667s-16.725333 37.546667-37.546666 37.546667h-77.141334c-20.821333 0-37.546667-16.725333-37.546666-37.546667-0.341333-20.821333 16.725333-37.546667 37.546666-37.546667zM329.728 743.765333c49.834667 49.834667 116.053333 77.482667 186.709333 77.482667 70.656 0 136.874667-27.306667 186.709334-77.482667 49.834667-49.834667 77.482667-116.053333 77.482666-186.709333 0-70.656-27.306667-136.874667-77.482666-186.709333-49.834667-49.834667-116.053333-77.482667-186.709334-77.482667-70.656 0-136.874667 27.306667-186.709333 77.482667s-77.482667 116.053333-77.482667 186.709333c0 70.314667 27.648 136.533333 77.482667 186.709333zM516.437333 361.813333c107.52 0 195.242667 87.722667 195.242667 195.242667 0 107.52-87.722667 195.242667-195.242667 195.242667-107.52 0-195.242667-87.722667-195.242666-195.242667 0-107.861333 87.381333-195.242667 195.242666-195.242667z" fill="#d81e06" p-id="4678"></path><path d="M433.834667 582.997333h87.722666c15.018667 0 26.965333-12.288 26.965334-26.965333v-153.6c0-15.018667-12.288-26.965333-26.965334-26.965333-15.018667 0-26.965333 12.288-26.965333 26.965333V529.066667h-60.416c-15.018667 0-26.965333 12.288-26.965333 26.965333-0.682667 14.677333 11.605333 26.965333 26.624 26.965333z" fill="#d81e06" p-id="4679"></path></svg>